<svg xmlns="http://www.w3.org/2000/svg" viewBox="0 0 400 400"><defs><style>.cls-1{fill:#dfc94f;}.cls-2{fill:#d7b545;}</style></defs><title>overflow_pattern</title><g id="assets"><rect class="cls-1" width="400" height="400"/><polygon class="cls-2" points="53.92 323.22 16.41 263.68 0 283.24 0 306.04 21.05 284.08 40.52 315.74 24.41 326.49 13.21 320.51 23.27 306.86 15.97 297.49 0 315.93 0 317.22 30.66 340.36 53.92 323.22"/><polygon class="cls-2" points="142.68 184.92 104.03 152.33 88 152.36 87.9 153.05 126.78 184 92.12 217.45 75.1 187.18 90.54 177.74 100.77 183.73 90.88 196.11 97.35 205.12 113.59 187.78 85.21 164.56 62.87 179.72 95.7 236.66 142.68 184.92"/><polygon class="cls-2" points="202.71 245.38 195.87 230.6 182.2 278.39 137.88 259.16 159.37 231.74 174.06 242.41 172.44 254.19 157.17 249.79 151.32 259.26 173.62 267.63 184.21 232.4 161.58 217.53 121.45 269.87 187.47 293.48 202.71 245.38"/><polygon class="cls-2" points="0 57.67 32.4 78.56 3.08 105.48 0 102.36 0 119.15 52.9 69.53 0 40.17 0 57.67"/><polygon class="cls-2" points="146.45 56.48 134.95 39.22 141.36 27.23 155.97 38.01 166 30.19 145.42 12.37 120.09 45.91 138.44 70.82 202.2 30.68 165.66 0 143.19 0 180.36 35.64 146.45 56.48"/><polygon class="cls-2" points="17.26 75.95 0 66.02 0 81.3 8.9 85.53 17.26 75.95"/><polygon class="cls-2" points="230.28 0 221.59 0 217.22 11.14 222.13 22.58 230.28 0"/><polygon class="cls-2" points="278.45 0 267.43 0 270.29 1.52 251.23 23.54 240.26 13.93 242.37 4.13 254.25 8.5 259.58 0.83 257.79 0 239.67 0 231.46 21.86 248.48 35.34 278.45 0"/><polygon class="cls-2" points="237.49 173.49 194.91 159.95 185.89 193.66 190.81 202.31 198.56 169.91 227.22 181.28 214.03 200.47 204.45 193.82 205.26 185.84 215.09 188.25 218.64 181.68 204.24 176.84 198.16 200.91 212.89 210.1 237.49 173.49"/><polygon class="cls-2" points="304.66 96.58 320.48 93.58 277.94 68.95 307.07 31.09 328.18 58.3 314.41 69.82 303.5 65.43 311.4 51.84 303.73 43.95 290.33 63.33 321.56 81.97 341.27 63.84 300.75 12.76 262.21 70.37 304.66 96.58"/><polygon class="cls-2" points="40.6 195.65 37.32 181.8 13.67 223.14 0 212.48 0 228.38 14.68 238.27 40.6 195.65"/><polygon class="cls-2" points="262.54 213.75 252.03 236.6 288.3 250.42 305.67 227.73 253.64 181.51 223.77 249.2 273.23 268.9 289.31 262.83 240.04 244.8 263.66 199.61 290.89 224.32 278.54 238.97 266.26 236.37 272.05 220.63 262.54 213.75"/><polygon class="cls-2" points="313.41 110.62 279.99 160.35 282.1 179.24 282.93 179.27 314.38 129.47 358.26 165.99 324.79 189.95 311.67 172.98 317.41 160.15 333.27 170.21 343.05 161.42 320.53 144.52 296.83 180.96 317.57 205.33 380.43 159.3 313.41 110.62"/><polygon class="cls-2" points="26.67 180.77 10.15 162.24 0 170.69 0 178.84 4.72 174.99 15.19 187.97 10.88 198.6 0 192.28 0 205.3 8.66 211.34 26.67 180.77"/><polygon class="cls-2" points="384.25 0 371.03 0 355.11 9.78 348.59 0 330.89 0 330.85 0.05 347.74 22.98 384.25 0"/><polygon class="cls-2" points="348.1 267.91 353.24 261.25 338.11 253.27 327 278.92 341.71 291.8 375.67 255.55 330.79 232.81 314.67 268.64 318.58 279.15 333.05 244.53 362.85 262.35 344.72 281.3 335.27 272.17 337.61 263.45 348.1 267.91"/><polygon class="cls-2" points="65.82 249.71 54.49 260.46 73.42 277.58 88.87 268.63 67.47 228.64 34.65 260.79 60.92 285.23 71.15 284.93 45.45 262.27 69.59 241.72 80.67 262.95 70.01 268.45 63.15 263.87 70.08 256.11 65.82 249.71"/><polygon class="cls-2" points="17.85 130.91 18.96 140.81 38.88 114.1 60.72 135.86 41.02 148.29 34.84 138.39 38.74 131.38 46.81 137.48 52.67 132.85 41.36 122.72 26.27 142.42 36.17 156.69 73.23 132.77 39.46 103.51 17.85 130.91"/><polygon class="cls-2" points="126.5 133.23 150.69 159.48 162.17 160.47 137.61 135.29 164.99 114.82 174.29 137.65 162.58 142.92 155.91 137.79 163.97 129.96 160.21 123.04 147.24 133.8 165.16 152.68 182.24 143.99 164.18 100.97 126.5 133.23"/><polygon class="cls-2" points="218.69 92.39 209.53 97.57 224.22 114.67 249.03 90.28 237.03 67.65 179.95 92.78 223.93 142.4 258.64 109.29 260.25 94.17 259.61 94 226.43 127.49 198.44 91.37 228.73 78.42 236.06 93.95 229.35 102.99 218.69 92.39"/><polygon class="cls-2" points="92.67 84.82 84.99 89.16 97.3 103.5 118.12 83.05 108.05 64.07 60.17 85.14 97.06 126.76 126.17 99 127.53 86.31 126.99 86.17 99.16 114.26 75.68 83.96 101.09 73.1 107.23 86.13 101.61 93.71 92.67 84.82"/><polygon class="cls-2" points="0 390.09 6.43 386.04 0 380.63 0 390.09"/><polygon class="cls-2" points="400 345.65 400 332.04 385.38 321.31 400 306.04 400 283.24 368.33 320.99 400 345.65"/><polygon class="cls-2" points="400 317.22 400 315.93 399.32 316.71 400 317.22"/><polygon class="cls-2" points="317.19 380.7 317.88 397.6 318.61 397.68 349.65 355.43 386.33 390.6 371.03 400 384.25 400 400 390.09 400 380.63 349.96 338.63 317.19 380.7"/><polygon class="cls-2" points="354.17 369.18 330.89 400 348.59 400 344.52 393.89 350.43 382.86 363.88 392.78 373.11 385.58 354.17 369.18"/><polygon class="cls-2" points="221.59 400 230.28 400 236.28 383.41 267.43 400 278.45 400 284.14 393.29 233.13 370.53 221.59 400"/><polygon class="cls-2" points="316.31 311.68 315.63 311.63 287.85 351.42 253.13 319.7 281.58 301.25 291.73 315.71 286.52 326.05 273.85 317.18 265.47 324.04 283.36 338.8 304.25 309.71 288.11 288.87 234.62 324.37 287.94 366.97 317.32 327.31 316.31 311.68"/><polygon class="cls-2" points="390.85 198.92 400 205.3 400 192.28 398.37 191.34 390.85 198.92"/><polygon class="cls-2" points="375.19 100.12 397.95 121.08 400 119.15 400 102.36 388.5 90.72 392.51 77.74 400 81.3 400 66.02 393.67 62.37 375.19 100.12"/><polygon class="cls-2" points="382.86 30.66 356.61 82.31 360.85 100.2 361.64 100.13 386 48.64 400 57.67 400 40.17 382.86 30.66"/><polygon class="cls-2" points="400 228.38 400 212.48 378.92 196.04 400 178.84 400 170.69 361.7 202.59 400 228.38"/><polygon class="cls-2" points="196.51 336.37 182.67 349.59 204.45 369.54 223.11 358.36 199.26 311.07 159.14 350.58 188.61 378.39 201.69 378.6 171.89 352.03 201.27 326.68 213.6 351.8 200.76 358.7 192.8 353.42 201.31 343.91 196.51 336.37"/><polygon class="cls-2" points="40.67 400 65.01 400 65.63 399.28 46.62 387.98 40.67 400"/><polygon class="cls-2" points="28.26 352.79 0 332.04 0 345.65 11.03 354.23 28.18 353.53 28.26 352.79"/><polygon class="cls-2" points="29.34 0 18.57 0 15.35 6.29 19.7 20.11 29.34 0"/><polygon class="cls-2" points="88.12 0 75.98 0 77.96 1.33 53.31 24.61 41.72 12.21 45.31 1.09 58.55 7.54 65.01 0 40.67 0 30.59 20.37 48.74 37.97 88.12 0"/><polygon class="cls-2" points="124.64 400 138.63 400 140.51 397.43 143.19 400 165.66 400 140.86 379.18 124.64 400"/><polygon class="cls-2" points="239.67 400 257.79 400 242.37 392.81 239.67 400"/><polygon class="cls-2" points="18.57 400 29.34 400 40.66 376.37 75.98 400 88.12 400 94.97 393.4 38.51 361.08 18.57 400"/><polygon class="cls-2" points="106.8 43.33 138.63 0 124.64 0 105.25 24.89 106 43.25 106.8 43.33"/><polygon class="cls-2" points="97.13 297.18 82.93 341.04 88.83 352.79 101.27 310.57 138.3 327.52 119.59 351.95 107.41 342.52 109.02 332.04 121.82 335.9 126.96 327.48 108.29 320.11 98.63 351.44 117.44 364.58 152.39 317.95 97.13 297.18"/></g></svg>