<svg xmlns="http://www.w3.org/2000/svg" xmlns:xlink="http://www.w3.org/1999/xlink" width="320" height="66" viewBox="0 0 320 66"><defs><style>.a{fill:url(#a);}.b{fill:#8f562e;}</style><linearGradient id="a" x1="160" y1="66" x2="160" gradientUnits="userSpaceOnUse"><stop offset="0" stop-color="#955a2c"/><stop offset="0.31682" stop-color="#9a5e2f"/><stop offset="0.71112" stop-color="#aa6a39"/><stop offset="0.7775" stop-color="#ad6d3b"/><stop offset="1" stop-color="#b36e39"/></linearGradient></defs><title>nav_bar_wood_grain_tile</title><rect class="a" width="320" height="66"/><path class="b" d="M98.26254,60.45227C12.21827,45.86042,5.55335,49.789.02044,49.26263.01955,49.1626-.00133,46.83648,0,46.985c6.10527.5787,11.88162-3.48536,98.55945,11.21406,9.4169,1.59689,22.1313,4.3437,51.61678,3.4371,54.86963,0,109.49833-7.20992,142.1378-11.51816,28.3083-3.73578,26.28748-3.03946,27.66553-3.17706.00089.1.02177,2.42615.02044,2.27768-2.2346.22414.90021-.58077-27.38127,3.15263C259.88191,56.6919,205.17387,63.91236,150.202,63.91236,120.43178,64.6803,109.24328,62.3142,98.26254,60.45227Z"/><path class="b" d="M.01071,24.22592,0,21.94968c27.77405-.62935,91.27011,23.48683,124.94869,23.48683,19.29228,0,39.63432-5.94864,84.323-12.57209,43.555-6.45373,89.2891-10.44637,110.2075-10.92623l.5101-.01149L320,22.42859v1.77435l-.48673.01149c-20.85952.47891-66.486,4.46388-109.9583,10.90564-44.15049,6.54276-65.16851,12.59666-84.64973,12.59666C89.58571,47.71673,28.54859,23.55232.01071,24.22592Z"/><path class="b" d="M253.019,3.63776c-10.29337.28595-18.21154.424-28.51355.23944-17.0812-.42572-14.53666-.75894-23.2406-1.09284-33.46024-1.55984-76.0093-1.47543-108.427,7.35932C88.72053,11.2768,69.882,16.56742,68.29854,20.56446a1.96464,1.96464,0,0,0,.01934,1.53362c1.70958,4.36716,17.25707,6.22339,21.92724,6.72486,15.79743,1.68024,33.73752,1.2527,49.5841-.09577,1.81751-.22967,5.39637-.13928,5.39637-1.4541,0-.91955-1.94544-.59418-5.5293-.26617-15.71854,1.3246-33.60094,1.73656-49.28333.05127-5.104-.55225-13.63545-1.75271-18.27111-3.93232a5.68821,5.68821,0,0,1-2.20435-1.57562c-.1488-.20219-.11707-.30443.04468-.48749a10.84131,10.84131,0,0,1,2.81054-1.93859c5.41267-2.851,14.56159-5.59773,20.46961-7.21711C125.361,3.1899,167.93419,3.11592,201.19238,4.70813c8.61447.33821,6.817.68165,23.282,1.11633,10.35521.196,18.34642.063,28.5957-.21173C271.98822,5.0368,296.30542-1.36127,320-2.95658V-5C299.27151-3.752,278.26829,2.84538,253.019,3.63776Z"/></svg>