<svg xmlns="http://www.w3.org/2000/svg" width="268.5175" height="268.5175" viewBox="0 0 268.5175 268.5175"><defs><style>.a{fill:#f5562f;}.b{fill:#ff5f33;}</style></defs><rect class="a" x="0.00011" y="0.00003" width="268.51739" height="268.51747"/><polygon class="b" points="36.195 216.975 11.019 177.005 0 190.138 0 205.445 14.13 190.7 27.203 211.957 16.383 219.172 8.868 215.155 15.62 205.99 10.72 199.704 0 212.085 0 212.95 20.579 228.484 36.195 216.975"/><polygon class="b" points="95.78 124.136 69.837 102.257 59.073 102.279 59.007 102.744 85.107 123.52 61.841 145.974 50.414 125.654 60.776 119.314 67.645 123.338 61.008 131.646 65.353 137.693 76.253 126.055 57.199 110.469 42.202 120.642 64.245 158.871 95.78 124.136"/><polygon class="b" points="136.078 164.722 131.487 154.802 122.308 186.884 92.554 173.97 106.982 155.566 116.843 162.726 115.758 170.638 105.507 167.686 101.577 174.037 116.552 179.658 123.661 156.009 108.466 146.03 81.531 181.159 125.844 197.009 136.078 164.722"/><polygon class="b" points="0 38.714 21.746 52.737 2.065 70.806 0 68.717 0 79.986 35.508 46.679 0 26.969 0 38.714"/><polygon class="b" points="98.311 37.913 90.59 26.327 94.893 18.281 104.703 25.513 111.434 20.269 97.622 8.303 80.619 30.816 92.935 47.539 135.738 20.597 111.203 0 96.124 0 121.074 23.923 98.311 37.913"/><polygon class="b" points="11.587 50.986 0 44.316 0 54.575 5.978 57.416 11.587 50.986"/><polygon class="b" points="154.589 0 148.749 0 145.819 7.481 149.113 15.159 154.589 0"/><polygon class="b" points="186.921 0 179.527 0 181.447 1.023 168.651 15.799 161.285 9.354 162.703 2.772 170.675 5.707 174.253 0.561 173.05 0 160.888 0 155.377 14.677 166.801 23.724 186.921 0"/><polygon class="b" points="159.428 116.464 130.843 107.374 124.785 130.001 128.088 135.81 133.294 114.057 152.531 121.689 143.677 134.577 137.246 130.11 137.787 124.751 144.385 126.373 146.771 121.963 137.106 118.714 133.025 134.869 142.913 141.042 159.428 116.464"/><polygon class="b" points="204.516 64.832 215.135 62.819 186.581 46.289 206.132 20.868 220.306 39.136 211.064 46.868 203.738 43.921 209.038 34.803 203.894 29.505 194.897 42.511 215.863 55.023 229.092 42.857 201.893 8.566 176.02 47.241 204.516 64.832"/><polygon class="b" points="27.253 131.336 25.053 122.039 9.175 149.793 0 142.637 0 153.312 9.854 159.947 27.253 131.336"/><polygon class="b" points="176.239 143.49 169.184 158.825 193.536 168.105 205.195 152.871 170.267 121.848 150.214 167.286 183.42 180.513 194.211 176.435 161.14 164.334 176.996 133.998 195.271 150.583 186.984 160.419 178.739 158.675 182.625 148.11 176.239 143.49"/><polygon class="b" points="210.389 74.258 187.957 107.645 189.37 120.325 189.926 120.343 211.039 86.912 240.495 111.43 218.028 127.514 209.221 116.122 213.077 107.51 223.722 114.258 230.285 108.36 215.168 97.018 199.261 121.477 213.181 137.835 255.381 106.934 210.389 74.258"/><polygon class="b" points="17.902 121.349 6.815 108.909 0 114.584 0 120.057 3.17 117.472 10.199 126.182 7.306 133.317 0 129.078 0 137.818 5.815 141.874 17.902 121.349"/><polygon class="b" points="257.944 0 249.067 0 238.385 6.565 234.009 0 222.123 0 222.098 0.033 233.436 15.427 257.944 0"/><polygon class="b" points="233.676 179.845 237.125 175.375 226.97 170.017 219.515 187.235 229.39 195.882 252.185 171.55 222.058 156.282 211.236 180.336 213.858 187.389 223.575 164.153 243.576 176.111 231.407 188.835 225.067 182.709 226.636 176.85 233.676 179.845"/><polygon class="b" points="44.187 167.63 36.578 174.844 49.286 186.336 59.658 180.328 45.29 153.484 23.259 175.069 40.894 191.476 47.763 191.274 30.512 176.063 46.713 162.266 54.154 176.519 46.998 180.208 42.39 177.135 47.043 171.923 44.187 167.63"/><polygon class="b" points="11.985 87.88 12.725 94.522 26.101 76.595 40.758 91.204 27.534 99.546 23.39 92.903 26.003 88.193 31.425 92.29 35.359 89.181 27.763 82.378 17.632 95.607 24.278 105.184 49.158 89.129 26.489 69.486 11.985 87.88"/><polygon class="b" points="84.919 89.435 101.158 107.058 108.863 107.721 92.38 90.818 110.759 77.076 116.999 92.401 109.138 95.944 104.659 92.499 110.071 87.239 107.55 82.595 98.839 89.82 110.87 102.49 122.334 96.661 110.214 67.781 84.919 89.435"/><polygon class="b" points="146.808 62.022 140.659 65.499 150.516 76.974 167.173 60.603 159.119 45.414 120.797 62.279 150.322 95.589 173.62 73.367 174.705 63.212 174.274 63.102 151.998 85.586 133.209 61.336 153.548 52.644 158.464 63.069 153.963 69.135 146.808 62.022"/><polygon class="b" points="62.209 56.939 57.051 59.855 65.32 69.481 79.292 55.749 72.535 43.008 40.391 57.154 65.156 85.096 84.7 66.455 85.61 57.937 85.248 57.845 66.563 76.704 50.802 56.363 67.862 49.072 71.986 57.817 68.211 62.905 62.209 56.939"/><polygon class="b" points="0 261.862 4.32 259.143 0 255.517 0 261.862"/><polygon class="b" points="268.517 232.03 268.517 222.898 258.699 215.69 268.517 205.445 268.517 190.138 247.257 215.478 268.517 232.03"/><polygon class="b" points="268.517 212.95 268.517 212.085 268.064 212.608 268.517 212.95"/><polygon class="b" points="212.925 255.563 213.388 266.909 213.88 266.96 234.716 238.595 259.339 262.205 249.067 268.517 257.944 268.517 268.517 261.862 268.517 255.517 234.928 227.318 212.925 255.563"/><polygon class="b" points="237.751 247.826 222.123 268.517 234.009 268.517 231.276 264.417 235.238 257.011 244.269 263.668 250.465 258.841 237.751 247.826"/><polygon class="b" points="148.749 268.517 154.589 268.517 158.613 257.378 179.527 268.517 186.921 268.517 190.743 264.011 156.5 248.733 148.749 268.517"/><polygon class="b" points="212.336 209.229 211.879 209.193 193.234 235.906 169.921 214.61 189.023 202.224 195.839 211.935 192.338 218.876 183.833 212.918 178.207 217.524 190.219 227.433 204.239 207.905 193.404 193.914 157.499 217.744 193.289 246.346 213.018 219.718 212.336 209.229"/><polygon class="b" points="262.377 133.535 268.517 137.818 268.517 129.078 267.422 128.442 262.377 133.535"/><polygon class="b" points="251.862 67.209 267.138 81.28 268.517 79.986 268.517 68.717 260.795 60.903 263.487 52.185 268.517 54.575 268.517 44.316 264.266 41.869 251.862 67.209"/><polygon class="b" points="257.013 20.584 239.392 55.257 242.234 67.262 242.77 67.214 259.12 32.654 268.517 38.714 268.517 26.969 257.013 20.584"/><polygon class="b" points="268.517 153.312 268.517 142.637 254.365 131.598 268.517 120.057 268.517 114.584 242.805 135.996 268.517 153.312"/><polygon class="b" points="131.916 225.804 122.624 234.675 137.249 248.07 149.77 240.563 133.76 208.818 106.83 235.34 126.612 254.011 135.39 254.153 115.387 236.316 135.114 219.301 143.391 236.161 134.77 240.794 129.426 237.248 135.138 230.864 131.916 225.804"/><polygon class="b" points="27.303 268.517 43.642 268.517 44.054 268.035 31.295 260.451 27.303 268.517"/><polygon class="b" points="18.968 236.822 0 222.898 0 232.03 7.405 237.795 18.917 237.322 18.968 236.822"/><polygon class="b" points="19.695 0 12.466 0 10.302 4.223 13.224 13.502 19.695 0"/><polygon class="b" points="59.154 0 51.002 0 52.335 0.892 35.788 16.521 28.004 8.195 30.414 0.734 39.308 5.064 43.642 0 27.303 0 20.538 13.674 32.72 25.488 59.154 0"/><polygon class="b" points="83.67 268.517 93.059 268.517 94.326 266.793 96.124 268.517 111.203 268.517 94.556 254.543 83.67 268.517"/><polygon class="b" points="160.888 268.517 173.05 268.517 162.7 263.694 160.888 268.517"/><polygon class="b" points="12.466 268.517 19.695 268.517 27.296 252.657 51.002 268.517 59.154 268.517 63.75 264.086 25.854 242.394 12.466 268.517"/><polygon class="b" points="71.692 29.089 93.059 0 83.67 0 70.654 16.708 71.157 29.034 71.692 29.089"/><polygon class="b" points="65.205 199.498 55.669 228.937 59.631 236.827 67.983 208.483 92.842 219.863 80.283 236.262 72.103 229.931 73.181 222.898 81.776 225.488 85.224 219.832 72.695 214.886 66.208 235.921 78.833 244.739 102.297 213.44 65.205 199.498"/></svg>